<svg xmlns="http://www.w3.org/2000/svg" width="600" height="400" viewBox="0 0 600 400" fill="none">
  <g clip-path="url(#clip0_1_2)">
    <path d="M300 350C386.797 350 458 278.797 458 192C458 105.203 386.797 34 300 34C213.203 34 142 105.203 142 192C142 278.797 213.203 350 300 350Z" fill="#F5F3FF" />
    <path d="M300 320C370.304 320 427 263.304 427 193C427 122.696 370.304 66 300 66C229.696 66 173 122.696 173 193C173 263.304 229.696 320 300 320Z" fill="#EDE9FE" />
    <path d="M300 300C359.094 300 407 252.094 407 193C407 133.906 359.094 86 300 86C240.906 86 193 133.906 193 193C193 252.094 240.906 300 300 300Z" fill="#DDD6FE" />
    
    <!-- Brain Network -->
    <circle cx="300" cy="193" r="80" fill="#7C3AED" fill-opacity="0.1" />
    
    <!-- Nodes -->
    <circle cx="300" cy="193" r="10" fill="#7C3AED" />
    <circle cx="260" cy="153" r="8" fill="#7C3AED" />
    <circle cx="340" cy="153" r="8" fill="#7C3AED" />
    <circle cx="260" cy="233" r="8" fill="#7C3AED" />
    <circle cx="340" cy="233" r="8" fill="#7C3AED" />
    <circle cx="230" cy="193" r="6" fill="#7C3AED" />
    <circle cx="370" cy="193" r="6" fill="#7C3AED" />
    <circle cx="280" cy="133" r="6" fill="#7C3AED" />
    <circle cx="320" cy="133" r="6" fill="#7C3AED" />
    <circle cx="280" cy="253" r="6" fill="#7C3AED" />
    <circle cx="320" cy="253" r="6" fill="#7C3AED" />
    
    <!-- Connections -->
    <line x1="300" y1="193" x2="260" y2="153" stroke="#7C3AED" stroke-width="2" />
    <line x1="300" y1="193" x2="340" y2="153" stroke="#7C3AED" stroke-width="2" />
    <line x1="300" y1="193" x2="260" y2="233" stroke="#7C3AED" stroke-width="2" />
    <line x1="300" y1="193" x2="340" y2="233" stroke="#7C3AED" stroke-width="2" />
    <line x1="300" y1="193" x2="230" y2="193" stroke="#7C3AED" stroke-width="2" />
    <line x1="300" y1="193" x2="370" y2="193" stroke="#7C3AED" stroke-width="2" />
    <line x1="260" y1="153" x2="280" y2="133" stroke="#7C3AED" stroke-width="1.5" />
    <line x1="340" y1="153" x2="320" y2="133" stroke="#7C3AED" stroke-width="1.5" />
    <line x1="260" y1="233" x2="280" y2="253" stroke="#7C3AED" stroke-width="1.5" />
    <line x1="340" y1="233" x2="320" y2="253" stroke="#7C3AED" stroke-width="1.5" />
    <line x1="260" y1="153" x2="340" y2="153" stroke="#7C3AED" stroke-width="1.5" />
    <line x1="260" y1="233" x2="340" y2="233" stroke="#7C3AED" stroke-width="1.5" />
    <line x1="280" y1="133" x2="320" y2="133" stroke="#7C3AED" stroke-width="1.5" />
    <line x1="280" y1="253" x2="320" y2="253" stroke="#7C3AED" stroke-width="1.5" />
    
    <!-- Students -->
    <path d="M150 280C150 280 130 300 110 300C90 300 70 280 70 280" stroke="#7C3AED" stroke-width="3" stroke-linecap="round" />
    <circle cx="110" cy="250" r="30" fill="#DDD6FE" stroke="#7C3AED" stroke-width="3" />
    <circle cx="100" cy="240" r="3" fill="#7C3AED" />
    <circle cx="120" cy="240" r="3" fill="#7C3AED" />
    <path d="M100 260C100 260 110 265 120 260" stroke="#7C3AED" stroke-width="2" stroke-linecap="round" />
    
    <path d="M530 280C530 280 510 300 490 300C470 300 450 280 450 280" stroke="#7C3AED" stroke-width="3" stroke-linecap="round" />
    <circle cx="490" cy="250" r="30" fill="#DDD6FE" stroke="#7C3AED" stroke-width="3" />
    <circle cx="480" cy="240" r="3" fill="#7C3AED" />
    <circle cx="500" cy="240" r="3" fill="#7C3AED" />
    <path d="M480 260C480 260 490 265 500 260" stroke="#7C3AED" stroke-width="2" stroke-linecap="round" />
    
    <!-- Laptop -->
    <rect x="70" y="320" width="80" height="50" rx="5" fill="#7C3AED" />
    <rect x="70" y="310" width="80" height="10" rx="5" fill="#8B5CF6" />
    <rect x="75" y="325" width="70" height="40" rx="2" fill="#F5F3FF" />
    
    <rect x="450" y="320" width="80" height="50" rx="5" fill="#7C3AED" />
    <rect x="450" y="310" width="80" height="10" rx="5" fill="#8B5CF6" />
    <rect x="455" y="325" width="70" height="40" rx="2" fill="#F5F3FF" />
    
    <!-- Code Symbols -->
    <path d="M85 340L95 335L85 330" stroke="#7C3AED" stroke-width="2" stroke-linecap="round" stroke-linejoin="round" />
    <path d="M105 330L115 340L105 350" stroke="#7C3AED" stroke-width="2" stroke-linecap="round" stroke-linejoin="round" />
    <path d="M125 335H135" stroke="#7C3AED" stroke-width="2" stroke-linecap="round" />
    
    <path d="M465 340L475 335L465 330" stroke="#7C3AED" stroke-width="2" stroke-linecap="round" stroke-linejoin="round" />
    <path d="M485 330L495 340L485 350" stroke="#7C3AED" stroke-width="2" stroke-linecap="round" stroke-linejoin="round" />
    <path d="M505 335H515" stroke="#7C3AED" stroke-width="2" stroke-linecap="round" />
  </g>
  <defs>
    <clipPath id="clip0_1_2">
      <rect width="600" height="400" fill="white" />
    </clipPath>
  </defs>
</svg>